<?xml version="1.0" encoding="utf-8"?>
<!-- Generator: Adobe Illustrator 24.3.0, SVG Export Plug-In . SVG Version: 6.00 Build 0)  -->
<svg version="1.1" id="Layer_1" xmlns="http://www.w3.org/2000/svg" xmlns:xlink="http://www.w3.org/1999/xlink" x="0px" y="0px"
	 viewBox="0 0 800 665" style="enable-background:new 0 0 800 665;" xml:space="preserve">
<style type="text/css">
	.st0{fill:#032960;}
</style>
<g transform="translate(0.000000,665.000000) scale(0.100000,-0.100000)">
	<path class="st0" d="M2092,6428c-60-187-67-236-66-453c0-184,2-208,27-298l26-97l-67-84c-156-195-255-437-283-695
		c-14-124-6-404,15-562c15-108,49-266,71-330l13-36l-371-6c-465-7-751-31-1084-89c-109-19-123-23-123-41c0-17,5-19,37-13
		c442,77,787,106,1265,106h288l28-62l28-63l-110-8c-588-39-963-92-1359-189c-142-34-167-43-167-59c0-11,5-19,11-19c5,0,73,16,149,35
		c256,64,544,116,840,149c166,19,514,46,596,46h60l63-96c228-349,660-578,1241-660c63-9,120-18,126-19c6-2-20-35-57-74
		c-73-75-139-193-162-286c-12-47-16-52-67-77c-127-63-345-87-474-53c-151,40-277,140-389,310c-146,221-319,335-511,335
		c-90,0-139-22-144-64c-5-40,34-77,145-138c148-82,205-147,354-403c76-129,197-259,299-318c182-105,401-131,708-81l42,7v-390v-390
		l-31-61c-35-72-67-101-160-148c-69-34-89-55-89-93c0-37,37-51,136-51c228,0,413,100,476,258c22,55,22,70,29,527
		c7,504,10,535,62,629c49,87,48,99,45-676l-3-723l-23-43c-12-23-42-56-65-73c-48-35-66-62-67-101c-1-89,145-91,313-7
		c71,36,126,85,165,147c61,95,60,84,68,876c8,786,6,762,59,738l25-12l1-377c1-208,4-547,8-753c6-367,7-376,30-423
		c52-105,153-186,291-233c135-45,220-22,220,62c0,19-14,39-51,73c-58,52-82,93-98,169c-13,63-16,1392-3,1392c14,0,60-92,78-156
		c14-50,18-133,23-519c7-447,7-462,29-517c63-157,248-258,471-258c95,0,131,15,131,53c0,36-26,64-91,98c-67,36-117,90-151,165
		c-23,49-23,53-29,624c-5,549-6,578-27,653c-33,118-95,229-173,308c-61,61-66,69-46,73c12,2,76,12,142,21c618,84,1036,320,1216,688
		l33,67h76c94,0,432-25,610-46c296-33,584-85,840-149c76-19,144-35,149-35c6,0,11,8,11,19c0,16-25,25-167,59
		c-393,96-817,156-1290,183l-209,12l22,61l22,61l388-1c467,0,785-25,1113-85c129-23,131-23,131-1c0,16-18,22-122,40
		c-354,62-665,85-1126,86l-373,1l7,25c42,163,66,411,67,685c1,249-12,350-68,521c-58,176-136,315-266,470l-68,82l21,98
		c17,85,19,123,15,269c-6,180-18,255-68,413l-30,92h-92c-215,0-470-101-833-330c-18-11-42-9-160,14c-238,46-379,59-644,60
		c-306,0-542-25-788-84c-46-11-89-20-97-20c-7,0-60,30-117,66c-298,189-575,294-775,294h-92L2092,6428z M3516,4804
		c290-21,615-21,909,1c428,31,649,14,802-63c175-89,351-316,397-512c9-36,16-111,16-170c0-204-33-368-103-515
		c-142-295-423-438-947-484c-334-30-942-22-1239,14c-554,69-876,270-995,621c-39,117-51,200-51,359c0,131,3,159,24,220
		c32,95,80,180,153,270c129,162,258,232,488,268C3034,4823,3318,4818,3516,4804z"/>
	<path class="st0" d="M3021,4329c-184-94-201-463-29-602c51-41,127-48,186-18c150,77,197,381,83,538C3192,4342,3105,4372,3021,4329z
		 M3045,4215c30-29,32-64,5-93c-26-28-67-28-97,0s-29,63,2,93C2986,4247,3014,4247,3045,4215z"/>
	<path class="st0" d="M4819,4327c-169-90-202-422-56-576c165-174,398,40,357,329c-17,122-74,215-155,251
		C4911,4356,4872,4355,4819,4327z"/>
	<path class="st0" d="M3921,3643c-12-10-24-34-27-54c-5-28-1-41,18-63c50-58,148-22,148,55C4060,3646,3972,3685,3921,3643z"/>
	<path class="st0" d="M3775,3380c-11-18,39-93,83-125c39-27,52-30,116-30c63,0,78,4,115,28c46,31,81,80,81,115c0,36-32,26-58-18
		c-26-46-84-80-137-80s-111,34-137,80C3816,3388,3788,3401,3775,3380z"/>
</g>
</svg>
